<?xml version="1.0" encoding="UTF-8"?>
<!--Generator: Apple Native CoreSVG 149-->
<!DOCTYPE svg
PUBLIC "-//W3C//DTD SVG 1.1//EN"
       "http://www.w3.org/Graphics/SVG/1.1/DTD/svg11.dtd">
<svg version="1.1" xmlns="http://www.w3.org/2000/svg" xmlns:xlink="http://www.w3.org/1999/xlink" width="3300" height="2200">
 <!--glyph: "uni100234.medium", point size: 100.000000, font version: "Version 16.0d12e3", template writer version: "8"-->
 <g id="Notes">
  <rect height="2200" id="artboard" style="fill:white;opacity:1" width="3300" x="0" y="0"/>
  <line id="" style="fill:none;stroke:black;opacity:1;stroke-width:0.5;" x1="263" x2="3036" y1="292" y2="292"/>
  <text style="stroke:none;fill:black;font-family:-apple-system,&quot;SF Pro Display&quot;,&quot;SF Pro Text&quot;,Helvetica,sans-serif;font-weight:bold;" transform="matrix(1 0 0 1 263 322)">Weight/Scale Variations</text>
  <text style="stroke:none;fill:black;font-family:-apple-system,&quot;SF Pro Display&quot;,&quot;SF Pro Text&quot;,Helvetica,sans-serif;text-anchor:middle;" transform="matrix(1 0 0 1 559.711 322)">Ultralight</text>
  <text style="stroke:none;fill:black;font-family:-apple-system,&quot;SF Pro Display&quot;,&quot;SF Pro Text&quot;,Helvetica,sans-serif;text-anchor:middle;" transform="matrix(1 0 0 1 856.422 322)">Thin</text>
  <text style="stroke:none;fill:black;font-family:-apple-system,&quot;SF Pro Display&quot;,&quot;SF Pro Text&quot;,Helvetica,sans-serif;text-anchor:middle;" transform="matrix(1 0 0 1 1153.13 322)">Light</text>
  <text style="stroke:none;fill:black;font-family:-apple-system,&quot;SF Pro Display&quot;,&quot;SF Pro Text&quot;,Helvetica,sans-serif;text-anchor:middle;" transform="matrix(1 0 0 1 1449.84 322)">Regular</text>
  <text style="stroke:none;fill:black;font-family:-apple-system,&quot;SF Pro Display&quot;,&quot;SF Pro Text&quot;,Helvetica,sans-serif;text-anchor:middle;" transform="matrix(1 0 0 1 1746.56 322)">Medium</text>
  <text style="stroke:none;fill:black;font-family:-apple-system,&quot;SF Pro Display&quot;,&quot;SF Pro Text&quot;,Helvetica,sans-serif;text-anchor:middle;" transform="matrix(1 0 0 1 2043.27 322)">Semibold</text>
  <text style="stroke:none;fill:black;font-family:-apple-system,&quot;SF Pro Display&quot;,&quot;SF Pro Text&quot;,Helvetica,sans-serif;text-anchor:middle;" transform="matrix(1 0 0 1 2339.98 322)">Bold</text>
  <text style="stroke:none;fill:black;font-family:-apple-system,&quot;SF Pro Display&quot;,&quot;SF Pro Text&quot;,Helvetica,sans-serif;text-anchor:middle;" transform="matrix(1 0 0 1 2636.69 322)">Heavy</text>
  <text style="stroke:none;fill:black;font-family:-apple-system,&quot;SF Pro Display&quot;,&quot;SF Pro Text&quot;,Helvetica,sans-serif;text-anchor:middle;" transform="matrix(1 0 0 1 2933.4 322)">Black</text>
  <line id="" style="fill:none;stroke:black;opacity:1;stroke-width:0.5;" x1="263" x2="3036" y1="1903" y2="1903"/>
  <g id="" transform="matrix(1 0 0 1 263 1933)">
   <path d="M9.24805 0.830078C13.5547 0.830078 17.1387-2.74414 17.1387-7.05078C17.1387-11.3574 13.5449-14.9316 9.23828-14.9316C4.94141-14.9316 1.36719-11.3574 1.36719-7.05078C1.36719-2.74414 4.95117 0.830078 9.24805 0.830078ZM9.24805-0.654297C5.70312-0.654297 2.87109-3.49609 2.87109-7.05078C2.87109-10.6055 5.69336-13.4473 9.23828-13.4473C12.793-13.4473 15.6348-10.6055 15.6445-7.05078C15.6543-3.49609 12.8027-0.654297 9.24805-0.654297ZM9.22852-3.62305C9.69727-3.62305 9.9707-3.93555 9.9707-4.45312L9.9707-6.31836L12.002-6.31836C12.5-6.31836 12.832-6.57227 12.832-7.04102C12.832-7.51953 12.5195-7.7832 12.002-7.7832L9.9707-7.7832L9.9707-9.81445C9.9707-10.332 9.69727-10.6543 9.22852-10.6543C8.75977-10.6543 8.50586-10.3125 8.50586-9.81445L8.50586-7.7832L6.49414-7.7832C5.97656-7.7832 5.64453-7.51953 5.64453-7.04102C5.64453-6.57227 5.99609-6.31836 6.49414-6.31836L8.50586-6.31836L8.50586-4.45312C8.50586-3.95508 8.75977-3.62305 9.22852-3.62305Z"/>
  </g>
  <g id="" transform="matrix(1 0 0 1 281.506 1933)">
   <path d="M11.709 2.91016C17.1582 2.91016 21.6699-1.61133 21.6699-7.05078C21.6699-12.5 17.1484-17.0117 11.6992-17.0117C6.25977-17.0117 1.74805-12.5 1.74805-7.05078C1.74805-1.61133 6.26953 2.91016 11.709 2.91016ZM11.709 1.25C7.09961 1.25 3.41797-2.44141 3.41797-7.05078C3.41797-11.6602 7.08984-15.3516 11.6992-15.3516C16.3086-15.3516 20-11.6602 20.0098-7.05078C20.0195-2.44141 16.3184 1.25 11.709 1.25ZM11.6797-2.66602C12.207-2.66602 12.5098-3.01758 12.5098-3.59375L12.5098-6.23047L15.3223-6.23047C15.8691-6.23047 16.25-6.51367 16.25-7.03125C16.25-7.55859 15.8887-7.86133 15.3223-7.86133L12.5098-7.86133L12.5098-10.6836C12.5098-11.25 12.207-11.6113 11.6797-11.6113C11.1621-11.6113 10.8789-11.2305 10.8789-10.6836L10.8789-7.86133L8.07617-7.86133C7.50977-7.86133 7.13867-7.55859 7.13867-7.03125C7.13867-6.51367 7.5293-6.23047 8.07617-6.23047L10.8789-6.23047L10.8789-3.59375C10.8789-3.03711 11.1621-2.66602 11.6797-2.66602Z"/>
  </g>
  <g id="" transform="matrix(1 0 0 1 304.924 1933)">
   <path d="M14.9707 5.66406C21.9336 5.66406 27.6953-0.0976562 27.6953-7.05078C27.6953-14.0137 21.9238-19.7754 14.9609-19.7754C8.00781-19.7754 2.25586-14.0137 2.25586-7.05078C2.25586-0.0976562 8.01758 5.66406 14.9707 5.66406ZM14.9707 3.84766C8.93555 3.84766 4.08203-1.01562 4.08203-7.05078C4.08203-13.0957 8.92578-17.9492 14.9609-17.9492C21.0059-17.9492 25.8594-13.0957 25.8691-7.05078C25.8789-1.01562 21.0156 3.84766 14.9707 3.84766ZM14.9414-1.38672C15.5176-1.38672 15.8594-1.77734 15.8594-2.38281L15.8594-6.13281L19.7754-6.13281C20.3711-6.13281 20.7812-6.46484 20.7812-7.02148C20.7812-7.59766 20.3906-7.93945 19.7754-7.93945L15.8594-7.93945L15.8594-11.8652C15.8594-12.4805 15.5176-12.8711 14.9414-12.8711C14.375-12.8711 14.0527-12.4609 14.0527-11.8652L14.0527-7.93945L10.1465-7.93945C9.53125-7.93945 9.13086-7.59766 9.13086-7.02148C9.13086-6.46484 9.55078-6.13281 10.1465-6.13281L14.0527-6.13281L14.0527-2.38281C14.0527-1.79688 14.375-1.38672 14.9414-1.38672Z"/>
  </g>
  <text style="stroke:none;fill:black;font-family:-apple-system,&quot;SF Pro Display&quot;,&quot;SF Pro Text&quot;,Helvetica,sans-serif;font-weight:bold;" transform="matrix(1 0 0 1 263 1953)">Design Variations</text>
  <text style="stroke:none;fill:black;font-family:-apple-system,&quot;SF Pro Display&quot;,&quot;SF Pro Text&quot;,Helvetica,sans-serif;" transform="matrix(1 0 0 1 263 1971)">Symbols are supported in up to nine weights and three scales.</text>
  <text style="stroke:none;fill:black;font-family:-apple-system,&quot;SF Pro Display&quot;,&quot;SF Pro Text&quot;,Helvetica,sans-serif;" transform="matrix(1 0 0 1 263 1989)">For optimal layout with text and other symbols, vertically align</text>
  <text style="stroke:none;fill:black;font-family:-apple-system,&quot;SF Pro Display&quot;,&quot;SF Pro Text&quot;,Helvetica,sans-serif;" transform="matrix(1 0 0 1 263 2007)">symbols with the adjacent text.</text>
  <line id="" style="fill:none;stroke:#00AEEF;stroke-width:0.5;opacity:1.0;" x1="776" x2="776" y1="1919" y2="1933"/>
  <g id="" transform="matrix(1 0 0 1 776 1933)">
   <path d="M3.31055 0.126953C3.82812 0.126953 4.08203-0.0683594 4.26758-0.605469L5.52734-4.0625L11.2891-4.0625L12.5488-0.605469C12.7344-0.0683594 12.9883 0.126953 13.4961 0.126953C14.0137 0.126953 14.3457-0.185547 14.3457-0.673828C14.3457-0.839844 14.3164-0.986328 14.2383-1.20117L9.6582-13.3887C9.43359-13.9941 9.0332-14.2871 8.4082-14.2871C7.80273-14.2871 7.39258-13.9941 7.17773-13.3984L2.59766-1.19141C2.51953-0.976562 2.49023-0.830078 2.49023-0.664062C2.49023-0.175781 2.80273 0.126953 3.31055 0.126953ZM6.00586-5.53711L8.37891-12.1094L8.42773-12.1094L10.8008-5.53711Z"/>
  </g>
  <line id="" style="fill:none;stroke:#00AEEF;stroke-width:0.5;opacity:1.0;" x1="792.836" x2="792.836" y1="1919" y2="1933"/>
  <text style="stroke:none;fill:black;font-family:-apple-system,&quot;SF Pro Display&quot;,&quot;SF Pro Text&quot;,Helvetica,sans-serif;font-weight:bold;" transform="matrix(1 0 0 1 776 1953)">Margins</text>
  <text style="stroke:none;fill:black;font-family:-apple-system,&quot;SF Pro Display&quot;,&quot;SF Pro Text&quot;,Helvetica,sans-serif;" transform="matrix(1 0 0 1 776 1971)">Leading and trailing margins on the left and right side of each symbol</text>
  <text style="stroke:none;fill:black;font-family:-apple-system,&quot;SF Pro Display&quot;,&quot;SF Pro Text&quot;,Helvetica,sans-serif;" transform="matrix(1 0 0 1 776 1989)">can be adjusted by modifying the x-location of the margin guidelines.</text>
  <text style="stroke:none;fill:black;font-family:-apple-system,&quot;SF Pro Display&quot;,&quot;SF Pro Text&quot;,Helvetica,sans-serif;" transform="matrix(1 0 0 1 776 2007)">Modifications are automatically applied proportionally to all</text>
  <text style="stroke:none;fill:black;font-family:-apple-system,&quot;SF Pro Display&quot;,&quot;SF Pro Text&quot;,Helvetica,sans-serif;" transform="matrix(1 0 0 1 776 2025)">scales and weights.</text>
  <g id="" transform="matrix(1 0 0 1 1289 1933)">
   <path d="M2.8418 1.86523L4.54102 3.57422C5.40039 4.44336 6.38672 4.38477 7.31445 3.35938L17.4902-7.85156C17.7539-7.76367 18.0273-7.7832 18.3398-7.8418L19.4043-8.03711L20.0684-7.36328L20.0293-6.80664C19.9902-6.30859 20.1172-5.92773 20.6055-5.44922L21.3672-4.70703C21.8457-4.22852 22.4609-4.19922 22.9297-4.66797L25.8398-7.58789C26.3086-8.05664 26.2891-8.65234 25.8105-9.13086L25.0391-9.89258C24.5605-10.3711 24.1895-10.5273 23.7109-10.4883L23.1348-10.4395L22.4902-11.0742L22.7344-12.1973C22.8613-12.7637 22.7051-13.2031 22.1191-13.7891L19.9219-15.9766C16.582-19.2969 12.1484-19.2188 9.25781-16.3281C8.83789-15.918 8.80859-15.3418 9.04297-14.9512C9.27734-14.5898 9.73633-14.3555 10.3809-14.5215C11.8457-14.8633 13.3691-14.9219 14.7949-13.9844L14.209-12.5293C14.0137-12.0508 13.9844-11.6504 14.1113-11.2891L3.04688-0.898438C2.06055 0.0195312 1.98242 0.996094 2.8418 1.86523ZM10.752-15.957C13.1836-17.7344 16.4746-17.4316 18.7012-15.2051L21.1328-12.793C21.3672-12.5586 21.4062-12.373 21.3379-12.0312L21.0156-10.5469L22.5195-9.0625L23.5059-9.12109C23.7598-9.13086 23.8379-9.11133 24.0332-8.91602L24.6094-8.33984L22.168-5.89844L21.5918-6.47461C21.3965-6.66992 21.3672-6.74805 21.377-7.01172L21.4453-7.98828L19.9512-9.47266L18.4277-9.21875C18.1055-9.15039 17.959-9.17969 17.7148-9.41406L15.7129-11.416C15.459-11.6504 15.4297-11.8164 15.5859-12.1875L16.4648-14.2773C14.9023-15.7324 12.8711-16.3574 10.8398-15.7617C10.6836-15.7227 10.625-15.8496 10.752-15.957ZM5.27344 2.30469L4.10156 1.14258C3.63281 0.683594 3.74023 0.341797 4.14062-0.0195312L14.9512-10.1953L16.416-8.71094L6.42578 2.27539C6.07422 2.67578 5.74219 2.77344 5.27344 2.30469Z"/>
  </g>
  <text style="stroke:none;fill:black;font-family:-apple-system,&quot;SF Pro Display&quot;,&quot;SF Pro Text&quot;,Helvetica,sans-serif;font-weight:bold;" transform="matrix(1 0 0 1 1289 1953)">Exporting</text>
  <text style="stroke:none;fill:black;font-family:-apple-system,&quot;SF Pro Display&quot;,&quot;SF Pro Text&quot;,Helvetica,sans-serif;" transform="matrix(1 0 0 1 1289 1971)">Symbols should be outlined when exporting to ensure the</text>
  <text style="stroke:none;fill:black;font-family:-apple-system,&quot;SF Pro Display&quot;,&quot;SF Pro Text&quot;,Helvetica,sans-serif;" transform="matrix(1 0 0 1 1289 1989)">design is preserved when submitting to Xcode.</text>
  <text id="template-version" style="stroke:none;fill:black;font-family:-apple-system,&quot;SF Pro Display&quot;,&quot;SF Pro Text&quot;,Helvetica,sans-serif;text-anchor:end;" transform="matrix(1 0 0 1 3036 1933)">Template v.2.0</text>
  <text style="stroke:none;fill:black;font-family:-apple-system,&quot;SF Pro Display&quot;,&quot;SF Pro Text&quot;,Helvetica,sans-serif;text-anchor:end;" transform="matrix(1 0 0 1 3036 1951)">Requires Xcode 12 or greater</text>
  <text style="stroke:none;fill:black;font-family:-apple-system,&quot;SF Pro Display&quot;,&quot;SF Pro Text&quot;,Helvetica,sans-serif;text-anchor:end;" transform="matrix(1 0 0 1 3036 1969)">Generated from xmark.bin.circle.fill</text>
  <text style="stroke:none;fill:black;font-family:-apple-system,&quot;SF Pro Display&quot;,&quot;SF Pro Text&quot;,Helvetica,sans-serif;text-anchor:end;" transform="matrix(1 0 0 1 3036 1987)">Typeset at 100 points</text>
  <text style="stroke:none;fill:black;font-family:-apple-system,&quot;SF Pro Display&quot;,&quot;SF Pro Text&quot;,Helvetica,sans-serif;" transform="matrix(1 0 0 1 263 726)">Small</text>
  <text style="stroke:none;fill:black;font-family:-apple-system,&quot;SF Pro Display&quot;,&quot;SF Pro Text&quot;,Helvetica,sans-serif;" transform="matrix(1 0 0 1 263 1156)">Medium</text>
  <text style="stroke:none;fill:black;font-family:-apple-system,&quot;SF Pro Display&quot;,&quot;SF Pro Text&quot;,Helvetica,sans-serif;" transform="matrix(1 0 0 1 263 1586)">Large</text>
 </g>
 <g id="Guides">
  <g id="H-reference" style="fill:#27AAE1;stroke:none;" transform="matrix(1 0 0 1 339 696)">
   <path d="M0.976562 0L3.66211 0L12.9883-24.4629L45.752-24.4629L55.127 0L57.7637 0L30.6152-70.459L28.125-70.459ZM29.3457-67.1387L29.4434-67.1387L44.873-26.709L13.8672-26.709Z"/>
  </g>
  <line id="Baseline-S" style="fill:none;stroke:#27AAE1;opacity:1;stroke-width:0.5;" x1="263" x2="3036" y1="696" y2="696"/>
  <line id="Capline-S" style="fill:none;stroke:#27AAE1;opacity:1;stroke-width:0.5;" x1="263" x2="3036" y1="625.541" y2="625.541"/>
  <g id="H-reference" style="fill:#27AAE1;stroke:none;" transform="matrix(1 0 0 1 339 1126)">
   <path d="M0.976562 0L3.66211 0L12.9883-24.4629L45.752-24.4629L55.127 0L57.7637 0L30.6152-70.459L28.125-70.459ZM29.3457-67.1387L29.4434-67.1387L44.873-26.709L13.8672-26.709Z"/>
  </g>
  <line id="Baseline-M" style="fill:none;stroke:#27AAE1;opacity:1;stroke-width:0.5;" x1="263" x2="3036" y1="1126" y2="1126"/>
  <line id="Capline-M" style="fill:none;stroke:#27AAE1;opacity:1;stroke-width:0.5;" x1="263" x2="3036" y1="1055.54" y2="1055.54"/>
  <g id="H-reference" style="fill:#27AAE1;stroke:none;" transform="matrix(1 0 0 1 339 1556)">
   <path d="M0.976562 0L3.66211 0L12.9883-24.4629L45.752-24.4629L55.127 0L57.7637 0L30.6152-70.459L28.125-70.459ZM29.3457-67.1387L29.4434-67.1387L44.873-26.709L13.8672-26.709Z"/>
  </g>
  <line id="Baseline-L" style="fill:none;stroke:#27AAE1;opacity:1;stroke-width:0.5;" x1="263" x2="3036" y1="1556" y2="1556"/>
  <line id="Capline-L" style="fill:none;stroke:#27AAE1;opacity:1;stroke-width:0.5;" x1="263" x2="3036" y1="1485.54" y2="1485.54"/>
  <line id="left-margin" style="fill:none;stroke:#00AEEF;stroke-width:0.5;opacity:1.0;" x1="1391.3" x2="1391.3" y1="1030.79" y2="1150.12"/>
  <line id="right-margin" style="fill:none;stroke:#00AEEF;stroke-width:0.5;opacity:1.0;" x1="1508.39" x2="1508.39" y1="1030.79" y2="1150.12"/>
 </g>
 <g id="Symbols">
  <g id="Black-L" transform="matrix(1 0 0 1 2854.05 1556)">
   <path d="M79.3457 32.9102C116.748 32.9102 147.412 2.29492 147.412-35.1074C147.412-72.5586 116.748-103.174 79.2969-103.174C41.8945-103.174 11.2793-72.5586 11.2793-35.1074C11.2793 2.29492 41.9434 32.9102 79.3457 32.9102ZM45.6543-43.9941C42.041-43.9941 39.7461-46.2402 39.7461-50.0977L39.7461-53.9062C39.7461-57.7637 42.1387-59.8633 45.6543-59.8633L112.988-59.8633C116.602-59.8633 118.896-57.7637 118.896-53.9062L118.896-50.0977C118.896-46.2402 116.602-43.9941 112.988-43.9941ZM62.7441-1.26953C55.6641-1.26953 52.7832-5.27344 51.6113-12.3047L47.4121-38.3789L111.182-38.3789L107.031-12.3047C105.859-5.27344 102.93-1.26953 95.8984-1.26953ZM71.6797-8.93555C72.6074-8.93555 73.3398-9.17969 74.0723-9.86328L79.2969-15.2344L84.5703-9.86328C85.3027-9.17969 85.9863-8.93555 86.9629-8.93555C88.8672-8.93555 90.4297-10.4004 90.4297-12.3535C90.4297-13.3789 90.0879-13.9648 89.4043-14.6973L84.1797-19.9707L89.4043-25.1465C90.1855-25.8789 90.4297-26.6113 90.4297-27.5879C90.4297-29.541 88.916-31.1035 86.9629-31.1035C86.0352-31.1035 85.3027-30.6641 84.5703-30.0293L79.2969-24.707L74.0234-30.0293C73.291-30.6641 72.6074-31.0547 71.6797-31.0547C69.7266-31.0547 68.1641-29.541 68.1641-27.5879C68.1641-26.5625 68.457-25.8789 69.1895-25.1465L74.4141-19.9707L69.1895-14.6973C68.5059-13.9648 68.1641-13.3789 68.1641-12.3535C68.1641-10.4004 69.7266-8.93555 71.6797-8.93555Z"/>
  </g>
  <g id="Heavy-L" transform="matrix(1 0 0 1 2558.39 1556)">
   <path d="M78.2715 31.8848C115.088 31.8848 145.312 1.66016 145.312-35.1562C145.312-71.9238 115.039-102.148 78.2715-102.148C41.4551-102.148 11.2793-71.9238 11.2793-35.1562C11.2793 1.66016 41.5039 31.8848 78.2715 31.8848ZM44.2383-44.6777C40.625-44.6777 38.3789-46.9238 38.3789-50.7324L38.3789-54.541C38.3789-58.3008 40.6738-60.4492 44.2383-60.4492L112.256-60.4492C115.918-60.4492 118.115-58.3008 118.115-54.541L118.115-50.7324C118.115-46.9238 115.918-44.6777 112.256-44.6777ZM61.377-0.927734C54.4434-0.927734 51.5625-4.83398 50.4395-11.7188L46.1426-39.2578L110.352-39.2578L106.055-11.7188C104.932-4.83398 102.051-0.927734 95.1172-0.927734ZM70.0684-9.0332C70.9473-9.0332 71.6309-9.27734 72.3145-9.91211L78.2227-15.9668L84.1797-9.91211C84.8633-9.27734 85.5469-9.0332 86.4746-9.0332C88.2324-9.0332 89.6973-10.4492 89.6973-12.2559C89.6973-13.1836 89.3555-13.7695 88.7695-14.4531L82.8613-20.4102L88.7695-26.3184C89.4531-27.002 89.7461-27.6855 89.7461-28.6133C89.7461-30.4688 88.2812-31.8848 86.4746-31.8848C85.5469-31.8848 84.9121-31.4941 84.2285-30.8594L78.2227-24.9023L72.2656-30.8594C71.582-31.4941 70.9473-31.8359 70.0684-31.8359C68.2129-31.8359 66.7969-30.4199 66.7969-28.6133C66.7969-27.6367 67.041-27.002 67.7246-26.3184L73.6328-20.4102L67.7246-14.4531C67.0898-13.7695 66.7969-13.1836 66.7969-12.2559C66.7969-10.4492 68.2129-9.0332 70.0684-9.0332Z"/>
  </g>
  <g id="Bold-L" transform="matrix(1 0 0 1 2262.88 1556)">
   <path d="M77.0996 30.6641C113.232 30.6641 142.92 0.927734 142.92-35.1562C142.92-71.2891 113.184-100.977 77.0508-100.977C40.9668-100.977 11.2793-71.2891 11.2793-35.1562C11.2793 0.927734 41.0156 30.6641 77.0996 30.6641ZM42.627-45.459C38.9648-45.459 36.8652-47.7051 36.8652-51.416L36.8652-55.2246C36.8652-58.9355 39.1113-61.1328 42.627-61.1328L111.523-61.1328C115.186-61.1328 117.285-58.9355 117.285-55.2246L117.285-51.416C117.285-47.7051 115.186-45.459 111.523-45.459ZM59.8145-0.537109C53.0762-0.537109 50.2441-4.29688 49.1699-11.0352L44.7266-40.2344L109.375-40.2344L104.932-11.0352C103.906-4.29688 101.074-0.537109 94.2871-0.537109ZM68.2617-9.13086C69.0918-9.13086 69.7754-9.375 70.3613-9.96094L77.0508-16.748L83.7891-9.96094C84.375-9.42383 85.0098-9.13086 85.8887-9.13086C87.5-9.13086 88.8672-10.4492 88.8672-12.1094C88.8672-12.9883 88.5742-13.5742 88.0371-14.209L81.3477-20.8984L88.0371-27.6367C88.6719-28.2715 88.916-28.9062 88.916-29.7363C88.916-31.4453 87.5977-32.7637 85.8887-32.7637C85.0586-32.7637 84.4238-32.4219 83.8379-31.8359L77.0508-25.0977L70.3125-31.8359C69.6777-32.4219 69.0918-32.7148 68.2617-32.7148C66.5527-32.7148 65.1855-31.3965 65.1855-29.7363C65.1855-28.8574 65.5273-28.2227 66.1133-27.6367L72.8027-20.8984L66.1133-14.209C65.5273-13.5742 65.1855-12.9883 65.1855-12.1094C65.1855-10.4492 66.5527-9.13086 68.2617-9.13086Z"/>
  </g>
  <g id="Semibold-L" transform="matrix(1 0 0 1 1966.97 1556)">
   <path d="M76.2695 29.834C111.914 29.834 141.309 0.439453 141.309-35.1562C141.309-70.8008 111.865-100.195 76.2695-100.195C40.625-100.195 11.2793-70.8008 11.2793-35.1562C11.2793 0.439453 40.6738 29.834 76.2695 29.834ZM41.5039-45.9961C37.8418-45.9961 35.791-48.1934 35.791-51.9043L35.791-55.6641C35.791-59.375 37.9883-61.5723 41.5039-61.5723L110.986-61.5723C114.648-61.5723 116.699-59.375 116.699-55.6641L116.699-51.9043C116.699-48.1934 114.648-45.9961 110.986-45.9961ZM58.7891-0.292969C52.0996-0.292969 49.3164-3.90625 48.291-10.5957L43.75-40.918L108.74-40.918L104.199-10.5957C103.174-3.95508 100.391-0.292969 93.7012-0.292969ZM66.9922-9.17969C67.7734-9.17969 68.457-9.47266 68.9941-10.0098L76.2207-17.2852L83.4961-10.0098C84.0332-9.52148 84.668-9.17969 85.498-9.17969C87.0117-9.17969 88.3301-10.498 88.3301-12.0117C88.3301-12.8418 87.9883-13.4277 87.5-14.0137L80.2734-21.2402L87.5-28.5156C88.1348-29.1504 88.3789-29.7363 88.3789-30.5176C88.3789-32.1289 87.1094-33.3984 85.498-33.3984C84.7168-33.3984 84.082-33.0566 83.5449-32.5195L76.2207-25.2441L68.9453-32.5195C68.4082-33.0566 67.7734-33.3496 66.9922-33.3496C65.3809-33.3496 64.1113-32.0801 64.1113-30.5176C64.1113-29.6875 64.4043-29.0527 64.9902-28.5156L72.2168-21.2402L64.9902-14.0137C64.4531-13.4277 64.1113-12.8418 64.1113-12.0117C64.1113-10.498 65.3809-9.17969 66.9922-9.17969Z"/>
  </g>
  <g id="Medium-L" transform="matrix(1 0 0 1 1670.87 1556)">
   <path d="M75.6836 29.1992C110.938 29.1992 140.088 0.0976562 140.088-35.1562C140.088-70.459 110.889-99.5605 75.6348-99.5605C40.3809-99.5605 11.2793-70.459 11.2793-35.1562C11.2793 0.0976562 40.3809 29.1992 75.6836 29.1992ZM40.6738-46.3867C37.0117-46.3867 35.0098-48.6328 35.0098-52.2949L35.0098-56.0059C35.0098-59.7168 37.1582-61.9141 40.6738-61.9141L110.547-61.9141C114.258-61.9141 116.26-59.7168 116.26-56.0059L116.26-52.2949C116.26-48.6328 114.258-46.3867 110.547-46.3867ZM58.0078-0.0976562C51.3672-0.0976562 48.6328-3.61328 47.6074-10.2539L43.0176-41.4062L108.252-41.4062L103.613-10.2539C102.637-3.66211 99.8535-0.0976562 93.2617-0.0976562ZM66.0645-9.27734C66.7969-9.27734 67.4805-9.57031 67.9688-10.0098L75.5859-17.7246L83.3008-10.0098C83.7891-9.57031 84.375-9.27734 85.2051-9.27734C86.6211-9.27734 87.8906-10.498 87.8906-11.9629C87.8906-12.7441 87.5977-13.3301 87.1094-13.8672L79.4922-21.5332L87.1094-29.1992C87.6953-29.7852 87.9395-30.3711 87.9395-31.1035C87.9395-32.666 86.7676-33.8379 85.2051-33.8379C84.4238-33.8379 83.8379-33.4961 83.3496-33.0078L75.5859-25.3418L67.9199-33.0078C67.3828-33.4961 66.7969-33.7891 66.0645-33.7891C64.502-33.7891 63.3301-32.6172 63.3301-31.1035C63.3301-30.3223 63.623-29.7363 64.1113-29.1992L71.7285-21.5332L64.1113-13.8672C63.623-13.3301 63.3301-12.7441 63.3301-11.9629C63.3301-10.498 64.502-9.27734 66.0645-9.27734Z"/>
  </g>
  <g id="Regular-L" transform="matrix(1 0 0 1 1374.97 1556)">
   <path d="M74.8535 28.418C109.668 28.418 138.477-0.390625 138.477-35.2051C138.477-69.9707 109.619-98.7793 74.8047-98.7793C40.0391-98.7793 11.2793-69.9707 11.2793-35.2051C11.2793-0.390625 40.0879 28.418 74.8535 28.418ZM39.5996-46.9238C35.8887-46.9238 33.9844-49.1699 33.9844-52.7344L33.9844-56.4941C33.9844-60.1562 36.0352-62.3535 39.5996-62.3535L110.059-62.3535C113.721-62.3535 115.674-60.1562 115.674-56.4941L115.674-52.7344C115.674-49.1699 113.721-46.9238 110.059-46.9238ZM56.9336 0.195312C50.4395 0.195312 47.7051-3.27148 46.7773-9.76562L42.041-42.0898L107.568-42.0898L102.881-9.76562C101.904-3.32031 99.1699 0.195312 92.6758 0.195312ZM64.7949-9.32617C65.5273-9.32617 66.1621-9.61914 66.6016-10.0586L74.7559-18.2617L83.0078-10.0586C83.4473-9.66797 84.0332-9.32617 84.8145-9.32617C86.1328-9.32617 87.3535-10.5469 87.3535-11.8652C87.3535-12.5977 87.0117-13.1836 86.6211-13.6719L78.4668-21.875L86.6211-30.0781C87.1582-30.6641 87.4023-31.2012 87.4023-31.8848C87.4023-33.3496 86.2793-34.4238 84.8145-34.4238C84.082-34.4238 83.5449-34.1309 83.0566-33.6426L74.7559-25.4883L66.5527-33.6426C66.1133-34.1309 65.5273-34.375 64.7949-34.375C63.3789-34.375 62.2559-33.252 62.2559-31.8848C62.2559-31.1523 62.5488-30.5664 63.0371-30.0781L71.1426-21.875L63.0371-13.6719C62.5488-13.1836 62.2559-12.5977 62.2559-11.8652C62.2559-10.5469 63.3789-9.32617 64.7949-9.32617Z"/>
  </g>
  <g id="Light-L" transform="matrix(1 0 0 1 1079.18 1556)">
   <path d="M73.9258 27.4902C108.301 27.4902 136.621-0.830078 136.621-35.2051C136.621-69.5312 108.252-97.8516 73.9258-97.8516C39.5508-97.8516 11.2793-69.5312 11.2793-35.2051C11.2793-0.830078 39.5996 27.4902 73.9258 27.4902ZM38.4277-47.1191C35.0586-47.1191 33.2031-49.2188 33.2031-52.5391L33.2031-56.8359C33.2031-60.2051 35.1562-62.3047 38.4277-62.3047L109.375-62.3047C112.744-62.3047 114.6-60.2051 114.6-56.8359L114.6-52.5391C114.6-49.2188 112.744-47.1191 109.375-47.1191ZM56.2988-0.830078C50.0977-0.830078 47.3633-4.15039 46.4844-10.3516L41.6992-42.8711L106.104-42.8711L101.318-10.3516C100.439-4.24805 97.7051-0.830078 91.5039-0.830078ZM63.8184-10.6445C64.4531-10.6445 64.9902-10.8887 65.3809-11.2793L73.877-19.8242L82.4219-11.2793C82.8125-10.9375 83.3496-10.6445 84.0332-10.6445C85.1562-10.6445 86.2305-11.6699 86.2305-12.8418C86.2305-13.4277 85.9863-14.0137 85.5957-14.4043L77.0996-22.9492L85.5957-31.543C86.084-32.0312 86.2793-32.5195 86.2793-33.1055C86.2793-34.375 85.3027-35.3027 84.0332-35.3027C83.3984-35.3027 82.8613-35.0586 82.4707-34.6191L73.877-26.0742L65.332-34.6191C64.9414-35.0586 64.4531-35.2539 63.8184-35.2539C62.5488-35.2539 61.5723-34.2773 61.5723-33.1055C61.5723-32.4707 61.8164-31.9336 62.207-31.543L70.7031-22.9492L62.207-14.4043C61.8164-14.0137 61.5723-13.4277 61.5723-12.8418C61.5723-11.6699 62.5488-10.6445 63.8184-10.6445Z"/>
  </g>
  <g id="Thin-L" transform="matrix(1 0 0 1 783.693 1556)">
   <path d="M72.7051 26.2695C106.494 26.2695 134.18-1.41602 134.18-35.2051C134.18-68.9453 106.494-96.6309 72.7051-96.6309C38.9648-96.6309 11.2793-68.9453 11.2793-35.2051C11.2793-1.41602 38.9648 26.2695 72.7051 26.2695ZM36.9141-47.3633C33.9355-47.3633 32.2266-49.3164 32.2266-52.2461L32.2266-57.3242C32.2266-60.2539 33.9355-62.207 36.9141-62.207L108.496-62.207C111.475-62.207 113.232-60.2539 113.232-57.3242L113.232-52.2461C113.232-49.3164 111.475-47.3633 108.496-47.3633ZM55.4688-2.19727C49.6582-2.19727 46.9238-5.37109 46.0938-11.084L41.2109-43.8965L104.199-43.8965L99.3164-11.084C98.4863-5.51758 95.752-2.19727 89.9414-2.19727ZM62.4512-12.3535C62.9883-12.3535 63.4766-12.5488 63.7207-12.8418L72.7051-21.875L81.6895-12.8418C81.9336-12.5488 82.4219-12.3535 82.959-12.3535C83.8867-12.3535 84.7656-13.1836 84.7656-14.1113C84.7656-14.5508 84.5703-15.0391 84.2285-15.3809L75.293-24.3652L84.2285-33.3984C84.668-33.8379 84.7656-34.2285 84.7656-34.668C84.7656-35.6934 83.9844-36.4258 82.959-36.4258C82.4707-36.4258 82.0312-36.2305 81.6895-35.8887L72.7051-26.9043L63.7207-35.8887C63.3789-36.2305 62.9883-36.4258 62.4512-36.4258C61.4258-36.4258 60.6445-35.6445 60.6445-34.668C60.6445-34.2285 60.8398-33.7402 61.1816-33.3984L70.1172-24.3652L61.1816-15.3809C60.8398-15.0391 60.6445-14.5508 60.6445-14.1113C60.6445-13.1836 61.4258-12.3535 62.4512-12.3535Z"/>
  </g>
  <g id="Ultralight-L" transform="matrix(1 0 0 1 487.616 1556)">
   <path d="M72.1191 25.6348C105.566 25.6348 132.91-1.70898 132.91-35.2051C132.91-68.6523 105.566-95.9961 72.1191-95.9961C38.623-95.9961 11.2793-68.6523 11.2793-35.2051C11.2793-1.70898 38.623 25.6348 72.1191 25.6348ZM36.1328-47.4609C33.3496-47.4609 31.6895-49.3652 31.6895-52.0996L31.6895-57.5684C31.6895-60.3027 33.3496-62.207 36.1328-62.207L108.057-62.207C110.84-62.207 112.5-60.3027 112.5-57.5684L112.5-52.0996C112.5-49.3652 110.84-47.4609 108.057-47.4609ZM55.0781-2.88086C49.4629-2.88086 46.7285-5.95703 45.9473-11.4746L41.0156-44.4336L103.223-44.4336L98.291-11.4746C97.4609-6.15234 94.7266-2.88086 89.1113-2.88086ZM61.7676-13.2812C62.207-13.2812 62.6953-13.4277 62.8906-13.623L72.1191-22.9004L81.2988-13.623C81.4941-13.3789 81.9824-13.2812 82.4219-13.2812C83.252-13.2812 84.0332-13.916 84.0332-14.7461C84.0332-15.1367 83.8867-15.5762 83.5449-15.8691L74.3652-25.0977L83.5449-34.375C83.9355-34.7656 83.9844-35.1562 83.9844-35.498C83.9844-36.4258 83.3496-37.0117 82.4219-37.0117C81.9824-37.0117 81.5918-36.8652 81.2988-36.5723L72.1191-27.3438L62.8906-36.5723C62.5977-36.8652 62.207-37.0117 61.7676-37.0117C60.8398-37.0117 60.2051-36.3281 60.2051-35.498C60.2051-35.1562 60.3516-34.668 60.6445-34.375L69.8242-25.0977L60.6445-15.8691C60.3516-15.5762 60.2051-15.1367 60.2051-14.7461C60.2051-13.916 60.8398-13.2812 61.7676-13.2812Z"/>
  </g>
  <g id="Black-M" transform="matrix(1 0 0 1 2870.97 1126)">
   <path d="M62.4023 18.5547C91.9922 18.5547 116.113-5.56641 116.113-35.1562C116.113-64.7461 91.9922-88.8184 62.4023-88.8184C32.8125-88.8184 8.74023-64.7461 8.74023-35.1562C8.74023-5.56641 32.8125 18.5547 62.4023 18.5547ZM36.7188-41.1621C34.1309-41.1621 32.2266-42.8711 32.2266-45.8008L32.2266-49.1211C32.2266-51.9531 34.082-53.5156 36.7188-53.5156L88.1348-53.5156C90.7715-53.5156 92.627-51.9531 92.627-49.1211L92.627-45.8008C92.627-42.8711 90.7715-41.1621 88.1348-41.1621ZM50.1465-9.91211C44.6289-9.91211 42.334-13.1836 41.4062-18.6035L38.2812-36.9629L86.5723-36.9629L83.4473-18.6035C82.5195-13.1836 80.1758-9.91211 74.707-9.91211ZM57.1777-15.4297C57.9102-15.4297 58.4961-15.5273 59.1309-16.1133L62.4023-19.6289L65.7227-16.1133C66.3574-15.5273 66.8945-15.4297 67.6758-15.4297C69.2383-15.4297 70.459-16.5527 70.459-18.1641C70.459-18.9941 70.2148-19.4336 69.6777-20.0684L66.3574-23.3398L69.6777-26.6113C70.3125-27.1973 70.459-27.7832 70.459-28.6133C70.459-30.1758 69.2383-31.3965 67.6758-31.3965C66.8945-31.3965 66.3574-31.1035 65.7227-30.5176L62.4023-27.1484L59.1309-30.5176C58.4961-31.1035 57.9102-31.3965 57.1777-31.3965C55.6152-31.3965 54.3457-30.1758 54.3457-28.6133C54.3457-27.7832 54.541-27.1973 55.1758-26.6113L58.4961-23.3398L55.1758-20.0684C54.5898-19.4336 54.3457-18.9941 54.3457-18.1641C54.3457-16.5527 55.6152-15.4297 57.1777-15.4297Z"/>
  </g>
  <g id="Heavy-M" transform="matrix(1 0 0 1 2575.19 1126)">
   <path d="M61.5234 17.627C90.5273 17.627 114.258-6.10352 114.258-35.1562C114.258-64.1602 90.5273-87.8906 61.4746-87.8906C32.4707-87.8906 8.74023-64.1602 8.74023-35.1562C8.74023-6.10352 32.4707 17.627 61.5234 17.627ZM35.4492-41.8945C32.7637-41.8945 30.957-43.6035 30.957-46.5332L30.957-49.6582C30.957-52.5879 32.7637-54.1504 35.4492-54.1504L87.5488-54.1504C90.2832-54.1504 92.041-52.5879 92.041-49.6582L92.041-46.5332C92.041-43.6035 90.2832-41.8945 87.5488-41.8945ZM48.7793-9.27734C43.3594-9.27734 41.1133-12.4023 40.2344-17.7734L37.0117-37.6953L85.9863-37.6953L82.7637-17.7734C81.8848-12.4023 79.5898-9.27734 74.1699-9.27734ZM55.6641-15.1855C56.3965-15.1855 56.9336-15.332 57.5195-15.8691L61.4746-19.9707L65.4785-15.8691C66.0645-15.332 66.6016-15.1855 67.334-15.1855C68.75-15.1855 69.9707-16.3086 69.9707-17.8223C69.9707-18.5547 69.7266-18.9941 69.1895-19.5801L65.2344-23.584L69.1895-27.4902C69.7754-28.0762 69.9707-28.6133 69.9707-29.3945C69.9707-30.8594 68.7988-32.0312 67.334-32.0312C66.6016-32.0312 66.0645-31.7383 65.4785-31.25L61.4746-27.1973L57.5195-31.25C56.9336-31.7383 56.3965-32.0312 55.6641-32.0312C54.1992-32.0312 53.0273-30.8594 53.0273-29.3945C53.0273-28.6133 53.2227-28.0762 53.8086-27.4902L57.7637-23.584L53.8086-19.5801C53.2715-18.9941 53.0273-18.5547 53.0273-17.8223C53.0273-16.3086 54.1992-15.1855 55.6641-15.1855Z"/>
  </g>
  <g id="Bold-M" transform="matrix(1 0 0 1 2279.5 1126)">
   <path d="M60.498 16.5527C88.8672 16.5527 112.207-6.73828 112.207-35.1562C112.207-63.5742 88.8672-86.9141 60.4492-86.9141C32.0312-86.9141 8.74023-63.5742 8.74023-35.1562C8.74023-6.73828 32.0801 16.5527 60.498 16.5527ZM34.0332-42.6758C31.2012-42.6758 29.4922-44.4336 29.4922-47.3633L29.4922-50.293C29.4922-53.2227 31.2988-54.8828 34.0332-54.8828L86.9141-54.8828C89.7461-54.8828 91.4062-53.2227 91.4062-50.293L91.4062-47.3633C91.4062-44.4336 89.7461-42.6758 86.9141-42.6758ZM47.3145-8.54492C41.9434-8.54492 39.7461-11.5723 38.916-16.8945L35.5469-38.5254L85.4004-38.5254L82.0312-16.8945C81.1523-11.5723 78.9551-8.54492 73.6328-8.54492ZM54.0039-14.8926C54.6875-14.8926 55.2246-15.1367 55.7129-15.5762L60.4492-20.4102L65.1855-15.5762C65.7227-15.1367 66.2109-14.8926 66.9434-14.8926C68.2617-14.8926 69.3848-16.0156 69.3848-17.3828C69.3848-18.1152 69.1406-18.5547 68.7012-19.0918L63.9648-23.8281L68.7012-28.5156C69.2383-29.0527 69.4336-29.5898 69.4336-30.2734C69.4336-31.6895 68.3105-32.7637 66.9434-32.7637C66.2598-32.7637 65.7227-32.4707 65.2344-31.9824L60.4492-27.2461L55.7129-31.9824C55.1758-32.4707 54.6875-32.7637 54.0039-32.7637C52.5879-32.7637 51.5137-31.6406 51.5137-30.2734C51.5137-29.541 51.709-29.0527 52.2461-28.5156L56.9336-23.8281L52.2461-19.0918C51.7578-18.5547 51.5137-18.1152 51.5137-17.3828C51.5137-16.0156 52.5879-14.8926 54.0039-14.8926Z"/>
  </g>
  <g id="Semibold-M" transform="matrix(1 0 0 1 1983.5 1126)">
   <path d="M59.7656 15.8691C87.7441 15.8691 110.791-7.22656 110.791-35.1562C110.791-63.1348 87.6953-86.2305 59.7656-86.2305C31.7871-86.2305 8.74023-63.1348 8.74023-35.1562C8.74023-7.22656 31.7871 15.8691 59.7656 15.8691ZM33.0566-43.2129C30.1758-43.2129 28.5156-44.9707 28.5156-47.9492L28.5156-50.7324C28.5156-53.7109 30.2734-55.4199 33.0566-55.4199L86.4258-55.4199C89.3555-55.4199 91.0156-53.7109 91.0156-50.7324L91.0156-47.9492C91.0156-44.9707 89.3555-43.2129 86.4258-43.2129ZM46.2891-8.05664C40.9668-8.05664 38.8184-10.9863 37.9883-16.2598L34.5215-39.0625L84.9609-39.0625L81.4941-16.2598C80.6641-10.9863 78.5156-8.05664 73.1934-8.05664ZM52.832-14.7461C53.5156-14.7461 54.0527-14.9414 54.4922-15.3809L59.7168-20.7031L64.9902-15.3809C65.4785-14.9902 65.9668-14.7461 66.6504-14.7461C67.9199-14.7461 68.9941-15.8203 68.9941-17.0898C68.9941-17.7734 68.75-18.2617 68.3105-18.7012L63.0859-23.9746L68.3105-29.1992C68.8477-29.7363 69.043-30.2246 69.043-30.9082C69.043-32.2266 68.0176-33.252 66.6504-33.252C66.0156-33.252 65.5273-33.0078 65.0391-32.5195L59.7168-27.2461L54.4434-32.5195C54.0039-33.0078 53.5156-33.252 52.832-33.252C51.5137-33.252 50.4395-32.1777 50.4395-30.9082C50.4395-30.1758 50.6836-29.6875 51.1719-29.1992L56.3965-23.9746L51.1719-18.7012C50.7324-18.2617 50.4395-17.7734 50.4395-17.0898C50.4395-15.8203 51.5137-14.7461 52.832-14.7461Z"/>
  </g>
  <g id="Medium-M" transform="matrix(1 0 0 1 1687.3 1126)">
   <path d="M59.2285 15.332C86.9141 15.332 109.766-7.51953 109.766-35.2051C109.766-62.8418 86.8652-85.6934 59.1797-85.6934C31.543-85.6934 8.74023-62.8418 8.74023-35.2051C8.74023-7.51953 31.5918 15.332 59.2285 15.332ZM32.3242-43.6523C29.3457-43.6523 27.7344-45.4102 27.7344-48.3887L27.7344-51.0742C27.7344-54.0527 29.4922-55.8105 32.3242-55.8105L86.084-55.8105C89.0625-55.8105 90.6738-54.0527 90.6738-51.0742L90.6738-48.3887C90.6738-45.4102 89.0625-43.6523 86.084-43.6523ZM45.5078-7.71484C40.2344-7.71484 38.0859-10.498 37.3047-15.7715L33.7891-39.502L84.6191-39.502L81.1035-15.7715C80.3223-10.5469 78.1738-7.71484 72.9004-7.71484ZM51.9531-14.5996C52.5879-14.5996 53.125-14.8438 53.5645-15.2344L59.1797-20.8984L64.8438-15.2344C65.2832-14.8926 65.7715-14.5996 66.4551-14.5996C67.6758-14.5996 68.7012-15.6738 68.7012-16.8457C68.7012-17.5293 68.457-18.0176 68.0664-18.457L62.4512-24.1211L68.0664-29.7363C68.5547-30.2246 68.75-30.7129 68.75-31.3477C68.75-32.666 67.7246-33.6426 66.4551-33.6426C65.8203-33.6426 65.332-33.3496 64.8926-32.959L59.1797-27.2949L53.5156-32.959C53.0762-33.3496 52.5879-33.5938 51.9531-33.5938C50.6836-33.5938 49.6582-32.6172 49.6582-31.3477C49.6582-30.6641 49.9023-30.1758 50.3418-29.7363L55.957-24.1211L50.3418-18.457C49.9512-18.0176 49.6582-17.5293 49.6582-16.8457C49.6582-15.6738 50.6836-14.5996 51.9531-14.5996Z"/>
  </g>
  <g id="Regular-M" transform="matrix(1 0 0 1 1391.3 1126)">
   <path d="M58.5449 14.5996C85.791 14.5996 108.35-7.95898 108.35-35.2051C108.35-62.4023 85.7422-85.0098 58.4961-85.0098C31.2988-85.0098 8.74023-62.4023 8.74023-35.2051C8.74023-7.95898 31.3477 14.5996 58.5449 14.5996ZM31.3477-44.1895C28.3203-44.1895 26.7578-45.9961 26.7578-48.9258L26.7578-51.4648C26.7578-54.4922 28.4668-56.2988 31.3477-56.2988L85.6445-56.2988C88.6719-56.2988 90.2344-54.4922 90.2344-51.4648L90.2344-48.9258C90.2344-45.9961 88.6719-44.1895 85.6445-44.1895ZM44.4824-7.22656C39.3066-7.22656 37.1582-9.91211 36.377-15.1855L32.8125-40.0879L84.2285-40.0879L80.6152-15.1855C79.834-9.96094 77.7344-7.22656 72.5098-7.22656ZM50.8301-14.4043C51.416-14.4043 51.9531-14.6973 52.3438-15.0391L58.4473-21.1914L64.6484-15.0391C65.0391-14.7461 65.5273-14.4043 66.1621-14.4043C67.334-14.4043 68.3105-15.4785 68.3105-16.6016C68.3105-17.2363 68.0664-17.7246 67.7246-18.1152L61.5723-24.2676L67.7246-30.4199C68.1641-30.9082 68.3594-31.3477 68.3594-31.9824C68.3594-33.2031 67.4316-34.1309 66.1621-34.1309C65.5762-34.1309 65.0879-33.8867 64.6973-33.4473L58.4473-27.2949L52.2949-33.4473C51.9043-33.8867 51.416-34.082 50.8301-34.082C49.5605-34.082 48.6328-33.1543 48.6328-31.9824C48.6328-31.2988 48.877-30.8594 49.3164-30.4199L55.4199-24.2676L49.3164-18.1152C48.877-17.7246 48.6328-17.2363 48.6328-16.6016C48.6328-15.4785 49.5605-14.4043 50.8301-14.4043Z"/>
  </g>
  <g id="Light-M" transform="matrix(1 0 0 1 1095.42 1126)">
   <path d="M57.7148 13.7695C84.5215 13.7695 106.689-8.34961 106.689-35.2051C106.689-62.0117 84.5215-84.1797 57.666-84.1797C30.8594-84.1797 8.74023-62.0117 8.74023-35.2051C8.74023-8.34961 30.9082 13.7695 57.7148 13.7695ZM30.3223-44.3359C27.5391-44.3359 26.0742-46.0449 26.0742-48.7305L26.0742-51.8066C26.0742-54.541 27.6367-56.25 30.3223-56.25L85.0586-56.25C87.8418-56.25 89.3066-54.541 89.3066-51.8066L89.3066-48.7305C89.3066-46.0449 87.8418-44.3359 85.0586-44.3359ZM43.9453-8.10547C39.0137-8.10547 36.8652-10.7422 36.1328-15.6738L32.4707-40.7715L82.9102-40.7715L79.248-15.6738C78.5156-10.791 76.3672-8.10547 71.4355-8.10547ZM49.9023-15.5762C50.4395-15.5762 50.9277-15.8203 51.2207-16.1133L57.666-22.5586L64.1602-16.1133C64.4531-15.8203 64.8926-15.5762 65.4785-15.5762C66.4551-15.5762 67.334-16.4551 67.334-17.4316C67.334-17.9688 67.0898-18.4082 66.7969-18.75L60.3516-25.2441L66.7969-31.7383C67.1875-32.1289 67.3828-32.5195 67.3828-33.0566C67.3828-34.1309 66.5527-34.9121 65.4785-34.9121C64.9414-34.9121 64.5508-34.668 64.1602-34.3262L57.666-27.8809L51.1719-34.3262C50.8301-34.668 50.4395-34.8633 49.9023-34.8633C48.8281-34.8633 47.998-34.0332 47.998-33.0566C47.998-32.5195 48.2422-32.0801 48.584-31.7383L55.0293-25.2441L48.584-18.75C48.2422-18.4082 47.998-17.9688 47.998-17.4316C47.998-16.4551 48.8281-15.5762 49.9023-15.5762Z"/>
  </g>
  <g id="Thin-M" transform="matrix(1 0 0 1 799.806 1126)">
   <path d="M56.6406 12.6953C82.9102 12.6953 104.492-8.88672 104.492-35.2051C104.492-61.4746 82.9102-83.0566 56.5918-83.0566C30.3223-83.0566 8.74023-61.4746 8.74023-35.2051C8.74023-8.88672 30.3223 12.6953 56.6406 12.6953ZM28.9551-44.5801C26.5625-44.5801 25.1953-46.1426 25.1953-48.4863L25.1953-52.2461C25.1953-54.5898 26.5625-56.1523 28.9551-56.1523L84.2773-56.1523C86.6699-56.1523 88.0371-54.5898 88.0371-52.2461L88.0371-48.4863C88.0371-46.1426 86.6699-44.5801 84.2773-44.5801ZM43.1641-9.32617C38.5742-9.32617 36.4746-11.8164 35.8398-16.3574L32.0801-41.748L81.1523-41.748L77.3926-16.3574C76.7578-11.9141 74.6582-9.32617 70.0684-9.32617ZM48.6816-17.1387C49.1211-17.1387 49.5117-17.2852 49.7559-17.5293L56.5918-24.4141L63.4766-17.5293C63.7207-17.2852 64.1113-17.1387 64.5508-17.1387C65.332-17.1387 66.0156-17.8223 66.0156-18.6035C66.0156-18.9453 65.8691-19.3848 65.5762-19.6289L58.7402-26.5137L65.5762-33.3984C65.918-33.7402 66.0156-34.082 66.0156-34.4727C66.0156-35.3027 65.3809-35.8887 64.5508-35.8887C64.1113-35.8887 63.7695-35.7422 63.4766-35.4492L56.5918-28.6133L49.7559-35.4492C49.4629-35.7422 49.1211-35.8887 48.6816-35.8887C47.8516-35.8887 47.2168-35.2539 47.2168-34.4727C47.2168-34.082 47.3633-33.6914 47.6562-33.3984L54.4922-26.5137L47.6562-19.6289C47.3633-19.3848 47.2168-18.9453 47.2168-18.6035C47.2168-17.8223 47.8516-17.1387 48.6816-17.1387Z"/>
  </g>
  <g id="Ultralight-M" transform="matrix(1 0 0 1 503.656 1126)">
   <path d="M56.0547 12.1094C82.0801 12.1094 103.369-9.17969 103.369-35.2051C103.369-61.2305 82.0801-82.5195 56.0547-82.5195C30.0293-82.5195 8.74023-61.2305 8.74023-35.2051C8.74023-9.17969 30.0293 12.1094 56.0547 12.1094ZM28.2715-44.6777C26.0254-44.6777 24.707-46.1914 24.707-48.3398L24.707-52.4902C24.707-54.6387 26.0254-56.1523 28.2715-56.1523L83.8867-56.1523C86.084-56.1523 87.4023-54.6387 87.4023-52.4902L87.4023-48.3398C87.4023-46.1914 86.084-44.6777 83.8867-44.6777ZM42.8223-9.96094C38.3789-9.96094 36.2793-12.3535 35.6445-16.6992L31.8359-42.2363L80.2734-42.2363L76.4648-16.6992C75.8789-12.5 73.7305-9.96094 69.3359-9.96094ZM48.0957-17.9199C48.4375-17.9199 48.8281-18.0664 49.0234-18.2617L56.0547-25.3418L63.1348-18.2617C63.3301-18.0664 63.6719-17.9199 64.0625-17.9199C64.7461-17.9199 65.332-18.5059 65.332-19.1895C65.332-19.4824 65.2344-19.8242 64.9902-20.0684L57.9102-27.1484L64.9902-34.2773C65.2832-34.5703 65.332-34.9121 65.332-35.2051C65.332-35.9375 64.7949-36.4258 64.0625-36.4258C63.6719-36.4258 63.3789-36.2793 63.1348-36.0352L56.0547-29.0039L49.0234-36.0352C48.7793-36.2793 48.4375-36.4258 48.0957-36.4258C47.3633-36.4258 46.7773-35.8887 46.7773-35.2051C46.7773-34.9121 46.9238-34.5215 47.168-34.2773L54.1992-27.1484L47.168-20.0684C46.9238-19.8242 46.7773-19.4824 46.7773-19.1895C46.7773-18.5059 47.3633-17.9199 48.0957-17.9199Z"/>
  </g>
  <g id="Black-S" transform="matrix(1 0 0 1 2884.57 696)">
   <path d="M48.8281 6.83594C71.9727 6.83594 90.8203-12.0117 90.8203-35.1562C90.8203-58.3008 71.9727-77.1484 48.8281-77.1484C25.6836-77.1484 6.83594-58.3008 6.83594-35.1562C6.83594-12.0117 25.6836 6.83594 48.8281 6.83594ZM28.6621-39.9414C26.6113-39.9414 25.1465-41.2598 25.1465-43.5547L25.1465-46.1426C25.1465-48.3887 26.6113-49.6094 28.6621-49.6094L68.9941-49.6094C71.0938-49.6094 72.5098-48.3887 72.5098-46.1426L72.5098-43.5547C72.5098-41.2598 71.0938-39.9414 68.9941-39.9414ZM39.1602-15.332C34.8633-15.332 33.0566-17.8711 32.3242-22.1191L29.8828-36.6211L67.7734-36.6211L65.332-22.1191C64.5996-17.8711 62.793-15.332 58.4961-15.332ZM44.6777-19.6777C45.2637-19.6777 45.7031-19.7754 46.1914-20.2148L48.8281-22.998L51.4648-20.2148C51.9531-19.7754 52.3926-19.6777 52.9785-19.6777C54.1992-19.6777 55.1758-20.5566 55.1758-21.8262C55.1758-22.4609 54.9805-22.8027 54.541-23.291L51.9043-25.9277L54.541-28.5156C55.0293-29.0039 55.1758-29.4434 55.1758-30.0781C55.1758-31.2988 54.1992-32.2754 52.9785-32.2754C52.3926-32.2754 51.9531-32.0312 51.4648-31.5918L48.8281-28.9062L46.1914-31.5918C45.7031-32.0312 45.2637-32.2754 44.6777-32.2754C43.457-32.2754 42.4805-31.2988 42.4805-30.0781C42.4805-29.4434 42.627-29.0039 43.1152-28.5156L45.752-25.9277L43.1152-23.291C42.6758-22.8027 42.4805-22.4609 42.4805-21.8262C42.4805-20.5566 43.457-19.6777 44.6777-19.6777Z"/>
  </g>
  <g id="Heavy-S" transform="matrix(1 0 0 1 2588.47 696)">
   <path d="M48.2422 6.20117C70.9961 6.20117 89.5996-12.4023 89.5996-35.1562C89.5996-57.9102 70.9961-76.5625 48.1934-76.5625C25.4395-76.5625 6.83594-57.9102 6.83594-35.1562C6.83594-12.4023 25.4395 6.20117 48.2422 6.20117ZM27.7832-40.4785C25.6348-40.4785 24.2188-41.7969 24.2188-44.1406L24.2188-46.5332C24.2188-48.8281 25.6836-50.0977 27.7832-50.0977L68.6035-50.0977C70.8008-50.0977 72.168-48.8281 72.168-46.5332L72.168-44.1406C72.168-41.7969 70.8008-40.4785 68.6035-40.4785ZM38.1836-14.7461C33.9355-14.7461 32.1777-17.1875 31.4453-21.4355L28.9062-37.1094L67.4805-37.1094L64.9902-21.4355C64.2578-17.1875 62.5-14.7461 58.2031-14.7461ZM43.6523-19.3848C44.1895-19.3848 44.6289-19.4824 45.0684-19.9219L48.1934-23.1445L51.3184-19.9219C51.7578-19.4824 52.1973-19.3848 52.7832-19.3848C53.9551-19.3848 54.8828-20.2637 54.8828-21.4355C54.8828-22.0703 54.6875-22.4121 54.2969-22.8516L51.1719-25.9766L54.2969-29.0527C54.7363-29.541 54.9316-29.9805 54.9316-30.5664C54.9316-31.7383 53.9551-32.666 52.7832-32.666C52.1973-32.666 51.8066-32.4219 51.3184-32.0312L48.1934-28.8574L45.0684-32.0312C44.6289-32.4219 44.1895-32.666 43.6523-32.666C42.4316-32.666 41.5039-31.7383 41.5039-30.5664C41.5039-29.9316 41.6992-29.541 42.1387-29.0527L45.2637-25.9766L42.1387-22.8516C41.6992-22.4121 41.5039-22.0703 41.5039-21.4355C41.5039-20.2637 42.4316-19.3848 43.6523-19.3848Z"/>
  </g>
  <g id="Bold-S" transform="matrix(1 0 0 1 2292.44 696)">
   <path d="M47.5586 5.51758C69.873 5.51758 88.2324-12.8418 88.2324-35.2051C88.2324-57.5195 69.873-75.8789 47.5098-75.8789C25.1953-75.8789 6.83594-57.5195 6.83594-35.2051C6.83594-12.8418 25.1953 5.51758 47.5586 5.51758ZM26.8555-41.0645C24.5605-41.0645 23.1934-42.4316 23.1934-44.8242L23.1934-46.9727C23.1934-49.3652 24.6582-50.6836 26.8555-50.6836L68.2129-50.6836C70.5078-50.6836 71.8262-49.3652 71.8262-46.9727L71.8262-44.8242C71.8262-42.4316 70.5078-41.0645 68.2129-41.0645ZM37.1582-14.0625C32.9102-14.0625 31.1523-16.4551 30.4688-20.7031L27.8809-37.6465L67.1875-37.6465L64.5508-20.7031C63.8672-16.4551 62.1582-14.0625 57.9102-14.0625ZM42.4805-18.9941C43.0176-18.9941 43.457-19.1895 43.8477-19.5801L47.5098-23.291L51.1719-19.5801C51.6113-19.1895 52.002-18.9941 52.5879-18.9941C53.6621-18.9941 54.5898-19.9219 54.5898-20.9961C54.5898-21.6309 54.3945-21.9727 54.0039-22.4121L50.3906-26.0742L54.0039-29.6875C54.4434-30.127 54.5898-30.5176 54.5898-31.1035C54.5898-32.2266 53.7109-33.1543 52.5879-33.1543C52.0508-33.1543 51.6113-32.9102 51.2207-32.5195L47.5098-28.8086L43.8477-32.5195C43.4082-32.9102 43.0176-33.1055 42.4805-33.1055C41.3086-33.1055 40.4297-32.2266 40.4297-31.1035C40.4297-30.5176 40.625-30.0781 41.0156-29.6875L44.6777-26.0742L41.0156-22.4121C40.625-21.9727 40.4297-21.6309 40.4297-20.9961C40.4297-19.9219 41.3086-18.9941 42.4805-18.9941Z"/>
  </g>
  <g id="Semibold-S" transform="matrix(1 0 0 1 1996.2 696)">
   <path d="M47.0703 5.0293C69.0918 5.0293 87.3047-13.1348 87.3047-35.2051C87.3047-57.2266 69.0918-75.4395 47.0215-75.4395C25-75.4395 6.83594-57.2266 6.83594-35.2051C6.83594-13.1348 25.0488 5.0293 47.0703 5.0293ZM26.1719-41.4551C23.8281-41.4551 22.5098-42.8711 22.5098-45.2637L22.5098-47.2656C22.5098-49.707 23.9258-51.0742 26.1719-51.0742L67.9199-51.0742C70.2637-51.0742 71.582-49.707 71.582-47.2656L71.582-45.2637C71.582-42.8711 70.2637-41.4551 67.9199-41.4551ZM36.4258-13.623C32.1777-13.623 30.4688-15.918 29.7852-20.166L27.0996-38.0371L66.9922-38.0371L64.3066-20.166C63.623-15.918 61.9141-13.623 57.666-13.623ZM41.6504-18.75C42.1875-18.75 42.627-18.9453 43.0176-19.3359L47.0215-23.3887L51.0742-19.3359C51.4648-18.9941 51.8555-18.75 52.4414-18.75C53.4668-18.75 54.3945-19.6777 54.3945-20.7031C54.3945-21.2891 54.1504-21.6797 53.8086-22.0703L49.8047-26.0742L53.8086-30.127C54.248-30.5176 54.3945-30.957 54.3945-31.4941C54.3945-32.6172 53.5645-33.4473 52.4414-33.4473C51.9043-33.4473 51.5137-33.2031 51.123-32.8613L47.0215-28.8086L42.9688-32.8613C42.5781-33.2031 42.1875-33.4473 41.6504-33.4473C40.5273-33.4473 39.6973-32.5684 39.6973-31.4941C39.6973-30.9082 39.8926-30.5176 40.2832-30.127L44.2871-26.0742L40.2832-22.0703C39.8926-21.6797 39.6973-21.2891 39.6973-20.7031C39.6973-19.6777 40.5273-18.75 41.6504-18.75Z"/>
  </g>
  <g id="Medium-S" transform="matrix(1 0 0 1 1699.83 696)">
   <path d="M46.7285 4.6875C68.5547 4.6875 86.6211-13.3789 86.6211-35.2051C86.6211-57.0312 68.5059-75.0977 46.6797-75.0977C24.8535-75.0977 6.83594-57.0312 6.83594-35.2051C6.83594-13.3789 24.9023 4.6875 46.7285 4.6875ZM25.6836-41.748C23.291-41.748 21.9727-43.2129 21.9727-45.6055L21.9727-47.5098C21.9727-49.9512 23.3887-51.3672 25.6836-51.3672L67.6758-51.3672C70.1172-51.3672 71.3867-49.9512 71.3867-47.5098L71.3867-45.6055C71.3867-43.2129 70.1172-41.748 67.6758-41.748ZM35.8398-13.2812C31.6406-13.2812 29.9316-15.5273 29.2969-19.7754L26.5625-38.3301L66.7969-38.3301L64.0625-19.7754C63.4277-15.5273 61.7676-13.2812 57.5195-13.2812ZM41.0156-18.6035C41.5527-18.6035 41.9922-18.7988 42.3828-19.1406L46.6309-23.4375L50.9766-19.1406C51.3672-18.8477 51.7578-18.6035 52.3438-18.6035C53.3203-18.6035 54.1992-19.4824 54.1992-20.5078C54.1992-21.0938 54.0039-21.4355 53.6621-21.8262L49.3652-26.123L53.6621-30.4199C54.0527-30.8594 54.248-31.25 54.248-31.7871C54.248-32.8613 53.418-33.6914 52.3438-33.6914C51.8066-33.6914 51.416-33.4473 51.0254-33.1055L46.6309-28.7598L42.334-33.1055C41.9434-33.4473 41.5527-33.6426 41.0156-33.6426C39.9414-33.6426 39.1113-32.8125 39.1113-31.7871C39.1113-31.2012 39.3555-30.8105 39.6973-30.4199L43.9941-26.123L39.6973-21.8262C39.3555-21.4355 39.1113-21.0938 39.1113-20.5078C39.1113-19.4824 39.9414-18.6035 41.0156-18.6035Z"/>
  </g>
  <g id="Regular-S" transform="matrix(1 0 0 1 1403.58 696)">
   <path d="M46.2402 4.19922C67.7734 4.19922 85.6934-13.6719 85.6934-35.2051C85.6934-56.7383 67.7246-74.6094 46.1914-74.6094C24.707-74.6094 6.83594-56.7383 6.83594-35.2051C6.83594-13.6719 24.7559 4.19922 46.2402 4.19922ZM25.0488-42.1875C22.5586-42.1875 21.2891-43.6035 21.2891-46.0449L21.2891-47.8027C21.2891-50.293 22.6562-51.7578 25.0488-51.7578L67.3828-51.7578C69.873-51.7578 71.1426-50.293 71.1426-47.8027L71.1426-46.0449C71.1426-43.6035 69.873-42.1875 67.3828-42.1875ZM35.1074-12.8418C30.9082-12.8418 29.248-15.0391 28.6133-19.2871L25.8301-38.6719L66.6016-38.6719L63.8184-19.2871C63.1836-15.0391 61.5234-12.8418 57.3242-12.8418ZM40.2344-18.3594C40.7715-18.3594 41.2109-18.6035 41.5039-18.8965L46.1426-23.5352L50.8789-18.8965C51.2207-18.6523 51.6113-18.3594 52.1973-18.3594C53.125-18.3594 54.0039-19.2383 54.0039-20.2148C54.0039-20.752 53.7598-21.1426 53.4668-21.4844L48.8281-26.1719L53.4668-30.8594C53.8574-31.25 54.0527-31.6406 54.0527-32.1289C54.0527-33.2031 53.2227-33.9844 52.1973-33.9844C51.6602-33.9844 51.2695-33.7891 50.9277-33.4473L46.1426-28.7598L41.5039-33.4473C41.1621-33.7891 40.7715-33.9355 40.2344-33.9355C39.209-33.9355 38.3789-33.1543 38.3789-32.1289C38.3789-31.5918 38.623-31.2012 38.9648-30.8594L43.6035-26.1719L38.9648-21.4844C38.623-21.1426 38.3789-20.752 38.3789-20.2148C38.3789-19.2383 39.209-18.3594 40.2344-18.3594Z"/>
  </g>
  <g id="Light-S" transform="matrix(1 0 0 1 1107.6 696)">
   <path d="M45.5078 3.4668C66.6992 3.4668 84.2285-14.0137 84.2285-35.2051C84.2285-56.3965 66.6504-73.877 45.5078-73.877C24.3164-73.877 6.83594-56.3965 6.83594-35.2051C6.83594-14.0137 24.3652 3.4668 45.5078 3.4668ZM24.1211-42.334C21.875-42.334 20.7031-43.6523 20.7031-45.8984L20.7031-48.0957C20.7031-50.3418 21.9727-51.709 24.1211-51.709L66.8457-51.709C69.1406-51.709 70.3125-50.3418 70.3125-48.0957L70.3125-45.8984C70.3125-43.6523 69.1406-42.334 66.8457-42.334ZM34.6191-13.623C30.6641-13.623 29.0039-15.7227 28.418-19.7266L25.5371-39.3066L65.4297-39.3066L62.5977-19.7266C62.0117-15.7715 60.3516-13.623 56.3477-13.623ZM39.4531-19.3848C39.8926-19.3848 40.2832-19.5801 40.5273-19.873L45.459-24.8047L50.4395-19.873C50.7324-19.6289 51.0742-19.3848 51.5625-19.3848C52.3926-19.3848 53.125-20.166 53.125-20.9473C53.125-21.4355 52.9297-21.7773 52.6855-22.0703L47.7539-27.002L52.6855-31.9824C53.0273-32.3242 53.125-32.666 53.125-33.1055C53.125-33.9844 52.4414-34.668 51.5625-34.668C51.123-34.668 50.7812-34.4727 50.4883-34.1797L45.459-29.248L40.5273-34.1797C40.2344-34.4727 39.8926-34.668 39.4531-34.668C38.5254-34.668 37.8418-33.9355 37.8418-33.1055C37.8418-32.6172 38.0371-32.2754 38.3301-31.9824L43.2617-27.002L38.3301-22.0703C38.0371-21.7773 37.8418-21.4355 37.8418-20.9473C37.8418-20.166 38.5254-19.3848 39.4531-19.3848Z"/>
  </g>
  <g id="Thin-S" transform="matrix(1 0 0 1 811.867 696)">
   <path d="M44.5801 2.53906C65.2832 2.53906 82.2754-14.502 82.2754-35.2051C82.2754-55.9082 65.2344-72.9492 44.5312-72.9492C23.8281-72.9492 6.83594-55.9082 6.83594-35.2051C6.83594-14.502 23.877 2.53906 44.5801 2.53906ZM22.9492-42.4805C20.9961-42.4805 19.873-43.75 19.873-45.6543L19.873-48.4863C19.873-50.3906 20.9961-51.6602 22.9492-51.6602L66.1621-51.6602C68.1152-51.6602 69.1895-50.3906 69.1895-48.4863L69.1895-45.6543C69.1895-43.75 68.1152-42.4805 66.1621-42.4805ZM33.9844-14.6973C30.3223-14.6973 28.6621-16.6992 28.125-20.3125L25.1953-40.1367L63.916-40.1367L60.9863-20.3125C60.4492-16.748 58.7891-14.6973 55.127-14.6973ZM38.3789-20.752C38.7207-20.752 39.0625-20.8984 39.2578-21.0938L44.5312-26.416L49.8535-21.0938C50.0488-20.8984 50.3418-20.752 50.7324-20.752C51.3672-20.752 51.9531-21.3379 51.9531-21.9727C51.9531-22.3145 51.8066-22.6074 51.6113-22.8516L46.3379-28.125L51.6113-33.4961C51.9043-33.7402 51.9531-34.0332 51.9531-34.375C51.9531-35.0586 51.416-35.5469 50.7324-35.5469C50.3906-35.5469 50.0977-35.4492 49.8535-35.2051L44.5312-29.8828L39.2578-35.2051C39.0137-35.4492 38.7207-35.5469 38.3789-35.5469C37.6465-35.5469 37.1094-35.0098 37.1094-34.375C37.1094-34.0332 37.2559-33.6914 37.5-33.4961L42.7734-28.125L37.5-22.8516C37.2559-22.6074 37.1094-22.3145 37.1094-21.9727C37.1094-21.3379 37.6465-20.752 38.3789-20.752Z"/>
  </g>
  <g id="Ultralight-S" transform="matrix(1 0 0 1 515.644 696)">
   <path d="M44.043 2.00195C64.502 2.00195 81.2988-14.7461 81.2988-35.2051C81.2988-55.6641 64.502-72.4121 44.043-72.4121C23.584-72.4121 6.83594-55.6641 6.83594-35.2051C6.83594-14.7461 23.584 2.00195 44.043 2.00195ZM22.3145-42.627C20.5078-42.627 19.4824-43.7988 19.4824-45.5566L19.4824-48.6816C19.4824-50.4395 20.5078-51.6113 22.3145-51.6113L65.8203-51.6113C67.5781-51.6113 68.6523-50.4395 68.6523-48.6816L68.6523-45.5566C68.6523-43.7988 67.5781-42.627 65.8203-42.627ZM33.6426-15.2344C30.127-15.2344 28.4668-17.1875 27.9785-20.6543L25-40.5762L63.1348-40.5762L60.1562-20.6543C59.668-17.2852 58.0078-15.2344 54.4922-15.2344ZM37.8418-21.4844C38.1348-21.4844 38.4277-21.582 38.5742-21.7285L44.043-27.2461L49.5117-21.7285C49.707-21.582 50-21.4844 50.293-21.4844C50.8301-21.4844 51.3672-21.9238 51.3672-22.5098C51.3672-22.7539 51.2695-23.0469 51.0742-23.2422L45.5566-28.7109L51.0742-34.2285C51.3184-34.5215 51.3672-34.7656 51.3672-35.0098C51.3672-35.5957 50.8789-36.0352 50.293-36.0352C50-36.0352 49.7559-35.9375 49.5117-35.7422L44.043-30.2246L38.5742-35.7422C38.3789-35.9375 38.1348-36.0352 37.8418-36.0352C37.207-36.0352 36.7676-35.5469 36.7676-35.0098C36.7676-34.7656 36.8652-34.4727 37.0605-34.2285L42.5293-28.7109L37.0605-23.2422C36.8652-23.0469 36.7676-22.7539 36.7676-22.5098C36.7676-21.9238 37.207-21.4844 37.8418-21.4844Z"/>
  </g>
 </g>
</svg>
